<!-- Generator: Adobe Illustrator 25.2.3, SVG Export Plug-In  -->
<svg version="1.1" xmlns="http://www.w3.org/2000/svg" xmlns:xlink="http://www.w3.org/1999/xlink" x="0px" y="0px" width="383.2px"
	 height="373.9px" viewBox="0 0 383.2 373.9" style="overflow:visible;enable-background:new 0 0 383.2 373.9;"
	 xml:space="preserve">
<style type="text/css">
	.st0{fill:#320E10;}
	.st1{fill:#F3921A;}
</style>
<defs>
</defs>
<path class="st0" d="M315.2,373.9H68.1C30.6,373.9,0,343.2,0,305.8V68.1C0,30.6,30.6,0,68.1,0h247.1c37.4,0,68.1,30.6,68.1,68.1
	v237.8C383.2,343.2,352.6,373.9,315.2,373.9z"/>
<polygon class="st1" points="77.2,265.1 112.5,265.1 125.2,225.8 184.5,226.1 197.2,265.1 235.5,265.1 177,96 132,95.6 132,106.8 
	"/>
<polygon class="st0" points="154.6,126.4 135.7,191.1 175.1,191.1 "/>
<ellipse class="st1" cx="271.6" cy="103.7" rx="20" ry="21"/>
<path class="st1" d="M288,264.6h-33.2c-0.9,0-1.6-0.7-1.6-1.6V138.2c0-0.9,0.7-1.6,1.6-1.6H288c0.9,0,1.6,0.7,1.6,1.6V263
	C289.6,263.9,288.9,264.6,288,264.6z"/>
</svg>
