<!-- Generator: Adobe Illustrator 25.2.3, SVG Export Plug-In  -->
<svg version="1.1" xmlns="http://www.w3.org/2000/svg" xmlns:xlink="http://www.w3.org/1999/xlink" x="0px" y="0px" width="63px"
	 height="35.7px" viewBox="0 0 63 35.7" style="overflow:visible;enable-background:new 0 0 63 35.7;" xml:space="preserve">
<style type="text/css">
	.st0{fill:url(#SVGID_1_);}
	.st1{fill:url(#SVGID_2_);}
	.st2{fill:url(#SVGID_3_);}
	.st3{fill:url(#SVGID_4_);}
	.st4{fill:url(#SVGID_5_);}
	.st5{fill:url(#SVGID_6_);}
	.st6{fill:url(#SVGID_7_);}
	.st7{fill:url(#SVGID_8_);}
</style>
<defs>
</defs>
<g>
	<linearGradient id="SVGID_1_" gradientUnits="userSpaceOnUse" x1="22.3234" y1="17.8267" x2="62.9999" y2="17.8267">
		<stop  offset="0.1452" style="stop-color:#6C8CC8"/>
		<stop  offset="0.5444" style="stop-color:#394377"/>
		<stop  offset="0.7786" style="stop-color:#242A58"/>
	</linearGradient>
	<path class="st0" d="M22.4,0.7L29.5,22c0,0,1.9,13.6,15.8,13.6c13,0,17.8-13.7,17.7-17.3c0-0.3-0.3-0.6-0.6-0.6l-22.9,0
		c-0.3,0-0.4,0.2-0.4,0.5l1.7,5c0.1,0.1,0.2,0.2,0.3,0.2l13.4,0c0,0-2.5,4.7-8.6,4.7s-8.7-5.8-9.8-8.2L29.8,0.4
		C29.7,0.1,29.5,0,29.3,0h-6.4C22.5,0,22.2,0.4,22.4,0.7z"/>
	<linearGradient id="SVGID_2_" gradientUnits="userSpaceOnUse" x1="31.7935" y1="8.257" x2="63.021" y2="8.257">
		<stop  offset="0.1452" style="stop-color:#6C8CC8"/>
		<stop  offset="0.5444" style="stop-color:#394377"/>
		<stop  offset="0.7786" style="stop-color:#242A58"/>
	</linearGradient>
	<path class="st1" d="M31.8,0.5L37.2,16c0,0,1.8-7.4,9.5-7.6c5.5-0.1,8.2,4.4,9,6.2c0.1,0.3,0.5,0.5,0.8,0.5l5.7,0
		c0.6,0,1-0.5,0.8-1.1c-0.9-3.3-4.5-13.4-15.8-13.4C34.9,0.6,31.8,0.5,31.8,0.5z"/>
	<linearGradient id="SVGID_3_" gradientUnits="userSpaceOnUse" x1="0" y1="18.3834" x2="24.4205" y2="18.3834">
		<stop  offset="0.1452" style="stop-color:#6C8CC8"/>
		<stop  offset="0.5444" style="stop-color:#394377"/>
		<stop  offset="0.7786" style="stop-color:#242A58"/>
	</linearGradient>
	<path class="st2" d="M0,35.6h4.7c2.7,0,5.5-1.7,7.1-4c0.8-1.1,1.5-2.2,1.9-2.8c2.8-4.8,10.7-19.4,10.7-19.4l-2.9-8.3
		c0,0-10.2,18.8-14.3,25.6C4.6,31.7,0,35.6,0,35.6z"/>
	<linearGradient id="SVGID_4_" gradientUnits="userSpaceOnUse" x1="18.0445" y1="20.4746" x2="29.2262" y2="20.4746">
		<stop  offset="0.1452" style="stop-color:#6C8CC8"/>
		<stop  offset="0.5444" style="stop-color:#394377"/>
		<stop  offset="0.7786" style="stop-color:#242A58"/>
	</linearGradient>
	<path class="st3" d="M21.1,17.6h6.1l2,5.7H18.3c-0.2,0-0.3-0.2-0.2-0.4l2.8-5.2C20.9,17.7,21,17.6,21.1,17.6z"/>
</g>
</svg>
